<?xml version="1.0" encoding="UTF-8" standalone="no"?>
<svg width="45px" height="60px" viewBox="0 0 45 60" version="1.1" xmlns="http://www.w3.org/2000/svg" xmlns:xlink="http://www.w3.org/1999/xlink">
    <!-- Generator: Sketch 47.1 (45422) - http://www.bohemiancoding.com/sketch -->
    <title>Pin Map</title>
    <desc>Created with Sketch.</desc>
    <defs></defs>
    <g id="Services" stroke="none" stroke-width="1" fill="none" fill-rule="evenodd">
        <g id="11-Services-Directory-Archive-Single" transform="translate(-826.000000, -1228.000000)">
            <g id="Provider" transform="translate(0.000000, 980.000000)">
                <g id="Map" transform="translate(735.000000, 170.000000)">
                    <g id="Pin-Map" transform="translate(35.000000, 48.000000)">
                        <g transform="translate(56.000000, 30.000000)">
                            <path d="M9.95309804,41.1796471 C3.94949308,37.139139 0,30.2807963 0,22.5 C0,10.0735931 10.0735931,0 22.5,0 C34.9264069,0 45,10.0735931 45,22.5 C45,30.2807963 41.0505069,37.139139 35.046902,41.1796471 L22.5,60 L9.95309804,41.1796471 Z" id="Combined-Shape" fill="#F15922"></path>
                            <circle id="Oval-Copy" fill="#FFFFFF" opacity="0.2" cx="22.5" cy="22.5" r="15"></circle>
                            <path d="M19.7727273,25.9821429 L19.7727273,26.5178571 C19.7727273,26.5904021 19.7457389,26.6531805 19.6917614,26.7061942 C19.6377838,26.7592079 19.573864,26.7857143 19.5,26.7857143 L18.9545455,26.7857143 C18.8806814,26.7857143 18.8167616,26.7592079 18.7627841,26.7061942 C18.7088065,26.6531805 18.6818182,26.5904021 18.6818182,26.5178571 L18.6818182,25.9821429 C18.6818182,25.9095979 18.7088065,25.8468195 18.7627841,25.7938058 C18.8167616,25.7407921 18.8806814,25.7142857 18.9545455,25.7142857 L19.5,25.7142857 C19.573864,25.7142857 19.6377838,25.7407921 19.6917614,25.7938058 C19.7457389,25.8468195 19.7727273,25.9095979 19.7727273,25.9821429 Z M19.7727273,23.8392857 L19.7727273,24.375 C19.7727273,24.447545 19.7457389,24.5103234 19.6917614,24.5633371 C19.6377838,24.6163507 19.573864,24.6428571 19.5,24.6428571 L18.9545455,24.6428571 C18.8806814,24.6428571 18.8167616,24.6163507 18.7627841,24.5633371 C18.7088065,24.5103234 18.6818182,24.447545 18.6818182,24.375 L18.6818182,23.8392857 C18.6818182,23.7667407 18.7088065,23.7039623 18.7627841,23.6509487 C18.8167616,23.597935 18.8806814,23.5714286 18.9545455,23.5714286 L19.5,23.5714286 C19.573864,23.5714286 19.6377838,23.597935 19.6917614,23.6509487 C19.7457389,23.7039623 19.7727273,23.7667407 19.7727273,23.8392857 Z M21.9545455,23.8392857 L21.9545455,24.375 C21.9545455,24.447545 21.9275571,24.5103234 21.8735795,24.5633371 C21.819602,24.6163507 21.7556822,24.6428571 21.6818182,24.6428571 L21.1363636,24.6428571 C21.0624996,24.6428571 20.9985798,24.6163507 20.9446023,24.5633371 C20.8906247,24.5103234 20.8636364,24.447545 20.8636364,24.375 L20.8636364,23.8392857 C20.8636364,23.7667407 20.8906247,23.7039623 20.9446023,23.6509487 C20.9985798,23.597935 21.0624996,23.5714286 21.1363636,23.5714286 L21.6818182,23.5714286 C21.7556822,23.5714286 21.819602,23.597935 21.8735795,23.6509487 C21.9275571,23.7039623 21.9545455,23.7667407 21.9545455,23.8392857 Z M19.7727273,21.6964286 L19.7727273,22.2321429 C19.7727273,22.3046879 19.7457389,22.3674663 19.6917614,22.4204799 C19.6377838,22.4734936 19.573864,22.5 19.5,22.5 L18.9545455,22.5 C18.8806814,22.5 18.8167616,22.4734936 18.7627841,22.4204799 C18.7088065,22.3674663 18.6818182,22.3046879 18.6818182,22.2321429 L18.6818182,21.6964286 C18.6818182,21.6238836 18.7088065,21.5611052 18.7627841,21.5080915 C18.8167616,21.4550779 18.8806814,21.4285714 18.9545455,21.4285714 L19.5,21.4285714 C19.573864,21.4285714 19.6377838,21.4550779 19.6917614,21.5080915 C19.7457389,21.5611052 19.7727273,21.6238836 19.7727273,21.6964286 Z M26.3181818,25.9821429 L26.3181818,26.5178571 C26.3181818,26.5904021 26.2911935,26.6531805 26.2372159,26.7061942 C26.1832384,26.7592079 26.1193186,26.7857143 26.0454545,26.7857143 L25.5,26.7857143 C25.426136,26.7857143 25.3622162,26.7592079 25.3082386,26.7061942 C25.2542611,26.6531805 25.2272727,26.5904021 25.2272727,26.5178571 L25.2272727,25.9821429 C25.2272727,25.9095979 25.2542611,25.8468195 25.3082386,25.7938058 C25.3622162,25.7407921 25.426136,25.7142857 25.5,25.7142857 L26.0454545,25.7142857 C26.1193186,25.7142857 26.1832384,25.7407921 26.2372159,25.7938058 C26.2911935,25.8468195 26.3181818,25.9095979 26.3181818,25.9821429 Z M24.1363636,23.8392857 L24.1363636,24.375 C24.1363636,24.447545 24.1093753,24.5103234 24.0553977,24.5633371 C24.0014202,24.6163507 23.9375004,24.6428571 23.8636364,24.6428571 L23.3181818,24.6428571 C23.2443178,24.6428571 23.180398,24.6163507 23.1264205,24.5633371 C23.0724429,24.5103234 23.0454545,24.447545 23.0454545,24.375 L23.0454545,23.8392857 C23.0454545,23.7667407 23.0724429,23.7039623 23.1264205,23.6509487 C23.180398,23.597935 23.2443178,23.5714286 23.3181818,23.5714286 L23.8636364,23.5714286 C23.9375004,23.5714286 24.0014202,23.597935 24.0553977,23.6509487 C24.1093753,23.7039623 24.1363636,23.7667407 24.1363636,23.8392857 Z M21.9545455,21.6964286 L21.9545455,22.2321429 C21.9545455,22.3046879 21.9275571,22.3674663 21.8735795,22.4204799 C21.819602,22.4734936 21.7556822,22.5 21.6818182,22.5 L21.1363636,22.5 C21.0624996,22.5 20.9985798,22.4734936 20.9446023,22.4204799 C20.8906247,22.3674663 20.8636364,22.3046879 20.8636364,22.2321429 L20.8636364,21.6964286 C20.8636364,21.6238836 20.8906247,21.5611052 20.9446023,21.5080915 C20.9985798,21.4550779 21.0624996,21.4285714 21.1363636,21.4285714 L21.6818182,21.4285714 C21.7556822,21.4285714 21.819602,21.4550779 21.8735795,21.5080915 C21.9275571,21.5611052 21.9545455,21.6238836 21.9545455,21.6964286 Z M26.3181818,23.8392857 L26.3181818,24.375 C26.3181818,24.447545 26.2911935,24.5103234 26.2372159,24.5633371 C26.1832384,24.6163507 26.1193186,24.6428571 26.0454545,24.6428571 L25.5,24.6428571 C25.426136,24.6428571 25.3622162,24.6163507 25.3082386,24.5633371 C25.2542611,24.5103234 25.2272727,24.447545 25.2272727,24.375 L25.2272727,23.8392857 C25.2272727,23.7667407 25.2542611,23.7039623 25.3082386,23.6509487 C25.3622162,23.597935 25.426136,23.5714286 25.5,23.5714286 L26.0454545,23.5714286 C26.1193186,23.5714286 26.1832384,23.597935 26.2372159,23.6509487 C26.2911935,23.7039623 26.3181818,23.7667407 26.3181818,23.8392857 Z M24.1363636,21.6964286 L24.1363636,22.2321429 C24.1363636,22.3046879 24.1093753,22.3674663 24.0553977,22.4204799 C24.0014202,22.4734936 23.9375004,22.5 23.8636364,22.5 L23.3181818,22.5 C23.2443178,22.5 23.180398,22.4734936 23.1264205,22.4204799 C23.0724429,22.3674663 23.0454545,22.3046879 23.0454545,22.2321429 L23.0454545,21.6964286 C23.0454545,21.6238836 23.0724429,21.5611052 23.1264205,21.5080915 C23.180398,21.4550779 23.2443178,21.4285714 23.3181818,21.4285714 L23.8636364,21.4285714 C23.9375004,21.4285714 24.0014202,21.4550779 24.0553977,21.5080915 C24.1093753,21.5611052 24.1363636,21.6238836 24.1363636,21.6964286 Z M26.3181818,21.6964286 L26.3181818,22.2321429 C26.3181818,22.3046879 26.2911935,22.3674663 26.2372159,22.4204799 C26.1832384,22.4734936 26.1193186,22.5 26.0454545,22.5 L25.5,22.5 C25.426136,22.5 25.3622162,22.4734936 25.3082386,22.4204799 C25.2542611,22.3674663 25.2272727,22.3046879 25.2272727,22.2321429 L25.2272727,21.6964286 C25.2272727,21.6238836 25.2542611,21.5611052 25.3082386,21.5080915 C25.3622162,21.4550779 25.426136,21.4285714 25.5,21.4285714 L26.0454545,21.4285714 C26.1193186,21.4285714 26.1832384,21.4550779 26.2372159,21.5080915 C26.2911935,21.5611052 26.3181818,21.6238836 26.3181818,21.6964286 Z M24.1363636,28.9285714 L27.4090909,28.9285714 L27.4090909,19.2857143 L25.2272727,19.2857143 L25.2272727,19.5535714 C25.2272727,19.7767868 25.1477281,19.9665171 24.9886364,20.1227679 C24.8295447,20.2790186 24.6363648,20.3571429 24.4090909,20.3571429 L20.5909091,20.3571429 C20.3636352,20.3571429 20.1704553,20.2790186 20.0113636,20.1227679 C19.8522719,19.9665171 19.7727273,19.7767868 19.7727273,19.5535714 L19.7727273,19.2857143 L17.5909091,19.2857143 L17.5909091,28.9285714 L20.8636364,28.9285714 L20.8636364,27.0535714 C20.8636364,26.9810264 20.8906247,26.918248 20.9446023,26.8652344 C20.9985798,26.8122207 21.0624996,26.7857143 21.1363636,26.7857143 L23.8636364,26.7857143 C23.9375004,26.7857143 24.0014202,26.8122207 24.0553977,26.8652344 C24.1093753,26.918248 24.1363636,26.9810264 24.1363636,27.0535714 L24.1363636,28.9285714 Z M24.1363636,19.0178571 L24.1363636,16.3392857 C24.1363636,16.2667407 24.1093753,16.2039623 24.0553977,16.1509487 C24.0014202,16.097935 23.9375004,16.0714286 23.8636364,16.0714286 L23.3181818,16.0714286 C23.2443178,16.0714286 23.180398,16.097935 23.1264205,16.1509487 C23.0724429,16.2039623 23.0454545,16.2667407 23.0454545,16.3392857 L23.0454545,17.1428571 L21.9545455,17.1428571 L21.9545455,16.3392857 C21.9545455,16.2667407 21.9275571,16.2039623 21.8735795,16.1509487 C21.819602,16.097935 21.7556822,16.0714286 21.6818182,16.0714286 L21.1363636,16.0714286 C21.0624996,16.0714286 20.9985798,16.097935 20.9446023,16.1509487 C20.8906247,16.2039623 20.8636364,16.2667407 20.8636364,16.3392857 L20.8636364,19.0178571 C20.8636364,19.0904021 20.8906247,19.1531805 20.9446023,19.2061942 C20.9985798,19.2592079 21.0624996,19.2857143 21.1363636,19.2857143 L21.6818182,19.2857143 C21.7556822,19.2857143 21.819602,19.2592079 21.8735795,19.2061942 C21.9275571,19.1531805 21.9545455,19.0904021 21.9545455,19.0178571 L21.9545455,18.2142857 L23.0454545,18.2142857 L23.0454545,19.0178571 C23.0454545,19.0904021 23.0724429,19.1531805 23.1264205,19.2061942 C23.180398,19.2592079 23.2443178,19.2857143 23.3181818,19.2857143 L23.8636364,19.2857143 C23.9375004,19.2857143 24.0014202,19.2592079 24.0553977,19.2061942 C24.1093753,19.1531805 24.1363636,19.0904021 24.1363636,19.0178571 Z M28.5,18.75 L28.5,29.4642857 C28.5,29.6093757 28.4460233,29.7349325 28.3380682,29.8409598 C28.2301131,29.9469871 28.1022735,30 27.9545455,30 L17.0454545,30 C16.8977265,30 16.7698869,29.9469871 16.6619318,29.8409598 C16.5539767,29.7349325 16.5,29.6093757 16.5,29.4642857 L16.5,18.75 C16.5,18.60491 16.5539767,18.4793532 16.6619318,18.3733259 C16.7698869,18.2672986 16.8977265,18.2142857 17.0454545,18.2142857 L19.7727273,18.2142857 L19.7727273,15.8035714 C19.7727273,15.580356 19.8522719,15.3906258 20.0113636,15.234375 C20.1704553,15.0781242 20.3636352,15 20.5909091,15 L24.4090909,15 C24.6363648,15 24.8295447,15.0781242 24.9886364,15.234375 C25.1477281,15.3906258 25.2272727,15.580356 25.2272727,15.8035714 L25.2272727,18.2142857 L27.9545455,18.2142857 C28.1022735,18.2142857 28.2301131,18.2672986 28.3380682,18.3733259 C28.4460233,18.4793532 28.5,18.60491 28.5,18.75 Z" id="hospital-o---FontAwesome" fill="#FFFFFF"></path>
                        </g>
                    </g>
                </g>
            </g>
        </g>
    </g>
</svg>